Coordinates
version=1
nRows=22
nColumns=24
inDegrees=yes

Units are S.I. units (second, meters, Newtons, ...)
Angles are in degrees.

endheader
time	pelvis_tilt	pelvis_list	pelvis_rotation	pelvis_tx	pelvis_ty	pelvis_tz	hip_flexion_r	hip_adduction_r	hip_rotation_r	knee_angle_r	ankle_angle_r	subtalar_angle_r	mtp_angle_r	hip_flexion_l	hip_adduction_l	hip_rotation_l	knee_angle_l	ankle_angle_l	subtalar_angle_l	mtp_angle_l	lumbar_extension	lumbar_bending	lumbar_rotation
      1.23000000	     62.11708329	      3.84564487	     -1.52735111	      0.76734509	      1.02797510	     -0.28675689	      7.07356989	     -8.28815435	      0.30566017	    -44.86952030	     14.42452651	     -4.04081538	    -28.15836663	      7.96527925	     -2.54420979	    -16.04122084	    -78.64468437	     23.00652823	     -4.56373381	    -29.31320485	      0.00000000	      0.00000000	      0.00000000
      1.24000000	     62.04203676	      3.85119272	     -1.54591772	      0.76742327	      1.02799043	     -0.28664690	      7.38211049	     -8.22726093	      0.27995705	    -45.31334480	     14.74618214	     -3.93663389	    -28.10135898	      8.04093655	     -2.69979841	    -15.92557347	    -78.70322373	     21.54381595	     -4.32156576	    -40.46176096	      0.00000000	      0.00000000	      0.00000000
      1.25000000	     61.97110745	      3.85997800	     -1.56635967	      0.76754978	      1.02795201	     -0.28660652	      7.68035331	     -8.19673340	      0.20371669	    -45.85472999	     15.04867779	     -3.85069010	    -28.07917603	      8.07998057	     -2.84503227	    -15.79693283	    -78.72446463	     19.86297386	     -3.77096999	    -57.56398997	      0.00000000	      0.00000000	      0.00000000
      1.26000000	     61.90159027	      3.86698277	     -1.57950509	      0.76775086	      1.02783150	     -0.28668077	      7.96490756	     -8.19261026	      0.07590225	    -46.47708606	     15.33510945	     -3.78029231	    -28.09275289	      8.08726834	     -2.95609281	    -15.69453970	    -78.79960047	     18.34007425	     -2.90295998	    -80.58670153	      0.00000000	      0.00000000	      0.00000000
      1.27000000	     61.83137466	      3.87004839	     -1.57580355	      0.76800626	      1.02763994	     -0.28686533	      8.22290205	     -8.20999533	     -0.09764462	    -47.15656991	     15.61066184	     -3.71466360	    -28.13935755	      8.07560166	     -3.01536235	    -15.65197049	    -79.00763781	     17.34294626	     -1.81542557	   -109.25712221	      0.00000000	      0.00000000	      0.00000000
      1.28000000	     61.76350104	      3.87284537	     -1.55240855	      0.76822814	      1.02744509	     -0.28710183	      8.43376590	     -8.24521454	     -0.30423064	    -47.86886970	     15.88076267	     -3.63903610	    -28.21349900	      8.06847521	     -3.02489293	    -15.68034340	    -79.37833756	     17.12815380	     -0.70005996	   -143.05993644	      0.00000000	      0.00000000	      0.00000000
      1.29000000	     61.70864876	      3.88432449	     -1.51698756	      0.76832337	      1.02735397	     -0.28731305	      8.57682630	     -8.29607531	     -0.52607543	    -48.59732423	     16.14968528	     -3.53952323	    -28.30799144	      8.09534759	     -3.01143076	    -15.75938824	    -79.86860195	     17.74840580	      0.20843178	   -181.24360173	      0.00000000	      0.00000000	      0.00000000
      1.30000000	     61.67963936	      3.91300245	     -1.48409957	      0.76828012	      1.02744286	     -0.28744370	      8.64177583	     -8.35992393	     -0.74361529	    -49.33738101	     16.41976379	     -3.40710336	    -28.41488354	      8.17580816	     -3.01627702	    -15.84342790	    -80.37107670	     19.00749635	      0.70510877	   -222.83564878	      0.00000000	      0.00000000	      0.00000000
      1.31000000	     61.67993469	      3.95933409	     -1.46581721	      0.76817865	      1.02766863	     -0.28748842	      8.63562815	     -8.42999550	     -0.93981959	    -50.09456087	     16.69127402	     -3.23964126	    -28.52603202	      8.30057265	     -3.07247648	    -15.88189437	    -80.75763096	     20.49238623	      0.68224774	   -266.66641644	      0.00000000	      0.00000000	      0.00000000
      1.32000000	     61.69763519	      4.01207239	     -1.46374141	      0.76812020	      1.02786015	     -0.28748498	      8.57964019	     -8.49308936	     -1.10413467	    -50.87770175	     16.96287915	     -3.04178250	    -28.63329059	      8.42774700	     -3.18271029	    -15.84477472	    -80.93670914	     21.68724354	      0.16396423	   -311.40088034	      0.00000000	      0.00000000	      0.00000000
      1.33000000	     61.71341939	      4.05284011	     -1.46894125	      0.76815441	      1.02785212	     -0.28747398	      8.49655301	     -8.53275702	     -1.23387031	    -51.69205837	     17.23236875	     -2.82321641	    -28.72849890	      8.50403814	     -3.31481522	    -15.73816926	    -80.89251771	     22.13834924	     -0.70687505	   -355.57859534	      0.00000000	      0.00000000	      0.00000000
      1.34000000	     61.71558505	      4.06726930	     -1.46948219	      0.76827536	      1.02765849	     -0.28747232	      8.39735689	     -8.53749316	     -1.33197525	    -52.53598435	     17.49746683	     -2.59603598	    -28.80355810	      8.49668505	     -3.42025556	    -15.59992620	    -80.68608594	     21.60936468	     -1.72348475	   -397.66134281	      0.00000000	      0.00000000	      0.00000000
      1.35000000	     61.70604004	      4.05473121	     -1.45876141	      0.76844768	      1.02746122	     -0.28749101	      8.27782107	     -8.50707824	     -1.40299336	    -53.40229069	     17.75663774	     -2.37190153	    -28.85081017	      8.40974872	     -3.46210436	    -15.47853631	    -80.42229001	     20.16432147	     -2.68666053	   -436.08623164	      0.00000000	      0.00000000	      0.00000000
      1.36000000	     61.69323459	      4.02856986	     -1.43835035	      0.76860072	      1.02741285	     -0.28754704	      8.12643331	     -8.45198432	     -1.45008148	    -54.28298663	     18.00981697	     -2.15966174	    -28.86371937	      8.27597443	     -3.43313844	    -15.40931035	    -80.20287059	     18.14696958	     -3.46170462	   -469.31957762	      0.00000000	      0.00000000	      0.00000000
      1.37000000	     61.68524287	      4.00721206	     -1.41525567	      0.76866046	      1.02753368	     -0.28763149	      7.93611725	     -8.38844852	     -1.47412486	    -55.17450803	     18.25881593	     -1.96394173	    -28.83764592	      8.14012495	     -3.35638776	    -15.40109336	    -80.08735471	     16.07023283	     -4.00017393	   -495.90585204	      0.00000000	      0.00000000	      0.00000000
      1.38000000	     61.68889218	      4.00475698	     -1.39748811	      0.76863997	      1.02774833	     -0.28768946	      7.71067618	     -8.33381641	     -1.47444154	    -56.07996150	     18.50701230	     -1.78482125	    -28.77047980	      8.04607490	     -3.27253088	    -15.43792001	    -80.08015225	     14.46057342	     -4.32501937	   -514.50680057	      0.00000000	      0.00000000	      0.00000000
      1.39000000	     61.70720393	      4.02789283	     -1.39038191	      0.76863939	      1.02790075	     -0.28766321	      7.46256419	     -8.30233594	     -1.45077565	    -57.00658025	     18.75812905	     -1.61836919	    -28.66307122	      8.02542143	     -3.22048068	    -15.49271725	    -80.15049122	     13.71003667	     -4.49330523	   -523.92731169	      0.00000000	      0.00000000	      0.00000000
      1.40000000	     61.73499419	      4.07753719	     -1.39375580	      0.76873353	      1.02782939	     -0.28756697	      7.20590239	     -8.30006623	     -1.40602345	    -57.96024538	     19.01450293	     -1.45788800	    -28.51956793	      8.08867420	     -3.21757678	    -15.54581992	    -80.26879704	     13.97897934	     -4.55675578	   -523.12666341	      0.00000000	      0.00000000	      0.00000000
      1.41000000	     61.75988650	      4.14863500	     -1.39959388	      0.76891517	      1.02757999	     -0.28750501	      6.95261084	     -8.32134350	     -1.34771799	    -58.94104056	     19.27575904	     -1.29597047	    -28.34778128	      8.22350493	     -3.24824407	    -15.59778099	    -80.42975851	     15.17110646	     -4.53718609	   -511.21620702	      0.00000000	      0.00000000	      0.00000000
      1.42000000	     61.76613513	      4.22653462	     -1.39216484	      0.76911851	      1.02746881	     -0.28756606	      6.71436269	     -8.35097217	     -1.28661623	    -59.94294559	     19.53851894	     -1.12718076	    -28.15957386	      8.39743433	     -3.26919675	    -15.66752417	    -80.64601997	     16.97900169	     -4.42491564	   -487.44593814	      0.00000000	      0.00000000	      0.00000000
      1.43000000	     61.73675468	      4.28857968	     -1.35498251	      0.76925599	      1.02773335	     -0.28768943	      6.50412060	     -8.37307225	     -1.23292438	    -60.95789060	     19.79701065	     -0.95056608	    -27.97107149	      8.56485080	     -3.23406450	    -15.77521839	    -80.92067801	     18.98218626	     -4.19773421	   -451.18237651	      0.00000000	      0.00000000	      0.00000000
      1.44000000	     61.66201770	      4.31888297	     -1.28455027	      0.76932563	      1.02813324	     -0.28772971	      6.33141935	     -8.38241081	     -1.19212621	    -61.98076577	     20.04405572	     -0.77089591	    -27.80239230	      8.68677571	     -3.12877512	    -15.92095772	    -81.22143927	     20.77048799	     -3.84874670	   -401.87975410	      0.00000000	      0.00000000	      0.00000000
